<svg width="25" height="25" viewBox="0 0 25 25" fill="none" xmlns="http://www.w3.org/2000/svg">
<path d="M24.0247 19.8012H9.11502C8.9443 17.7358 7.29088 16.0841 5.22331 15.9135V1.01947C5.22331 0.616811 4.8954 0.289246 4.49231 0.289246H1.34037C0.937284 0.289246 0.609375 0.616811 0.609375 1.01947V4.61859C0.609375 4.81377 0.767741 4.97192 0.963081 4.97192C1.15842 4.97192 1.31679 4.81377 1.31679 4.61859V1.01947C1.31679 1.00652 1.32735 0.995915 1.34037 0.995915H4.49231C4.50533 0.995915 4.51589 1.00652 4.51589 1.01947V1.85023H3.30697C3.11163 1.85023 2.95327 2.00838 2.95327 2.20357C2.95327 2.39875 3.11163 2.5569 3.30697 2.5569H4.51585V3.41112H4.10046C3.90512 3.41112 3.74675 3.56928 3.74675 3.76446C3.74675 3.95964 3.90512 4.11779 4.10046 4.11779H4.51585V4.97202H3.30697C3.11163 4.97202 2.95327 5.13017 2.95327 5.32535C2.95327 5.52053 3.11163 5.67869 3.30697 5.67869H4.51585V6.53291H4.10046C3.90512 6.53291 3.74675 6.69106 3.74675 6.88624C3.74675 7.08143 3.90512 7.23958 4.10046 7.23958H4.51585V8.09375H3.30697C3.11163 8.09375 2.95327 8.25191 2.95327 8.44709C2.95327 8.64227 3.11163 8.80042 3.30697 8.80042H4.51585V9.65465H4.10046C3.90512 9.65465 3.74675 9.8128 3.74675 10.008C3.74675 10.2032 3.90512 10.3613 4.10046 10.3613H4.51585V11.2158H3.30697C3.11163 11.2158 2.95327 11.374 2.95327 11.5692C2.95327 11.7643 3.11163 11.9225 3.30697 11.9225H4.51585V12.7767H4.10046C3.90512 12.7767 3.74675 12.9348 3.74675 13.13C3.74675 13.3252 3.90512 13.4833 4.10046 13.4833H4.51585V14.3378H3.30697C3.11163 14.3378 2.95327 14.4959 2.95327 14.6911C2.95327 14.8863 3.11163 15.0445 3.30697 15.0445H4.51585V15.8988H1.31679V6.03188C1.31679 5.8367 1.15842 5.67855 0.963081 5.67855C0.767741 5.67855 0.609375 5.8367 0.609375 6.03188V23.2764C0.609375 23.9016 1.11857 24.4102 1.74439 24.4102H8.77607H24.0247C24.4278 24.4102 24.7557 24.0826 24.7557 23.68V20.5314C24.7557 20.1287 24.4278 19.8012 24.0247 19.8012ZM1.31679 23.2764V16.6054H4.8696C6.82861 16.6054 8.42237 18.1975 8.42237 20.1544V20.1545V23.7035H1.74439C1.50864 23.7035 1.31679 23.5119 1.31679 23.2764ZM24.0483 23.68C24.0483 23.6929 24.0377 23.7035 24.0247 23.7035H9.12978V20.5078H9.98499V21.7154C9.98499 21.9106 10.1434 22.0688 10.3387 22.0688C10.534 22.0688 10.6924 21.9106 10.6924 21.7154V20.5078H11.5475V20.9228C11.5475 21.118 11.7059 21.2761 11.9012 21.2761C12.0966 21.2761 12.2549 21.118 12.2549 20.9228V20.5078H13.11V21.7154C13.11 21.9106 13.2684 22.0688 13.4637 22.0688C13.6591 22.0688 13.8174 21.9106 13.8174 21.7154V20.5078H14.6725V20.9228C14.6725 21.118 14.8309 21.2761 15.0263 21.2761C15.2216 21.2761 15.38 21.118 15.38 20.9228V20.5078H16.235V21.7154C16.235 21.9106 16.3934 22.0688 16.5887 22.0688C16.7841 22.0688 16.9424 21.9106 16.9424 21.7154V20.5078H17.7976V20.9228C17.7976 21.118 17.9559 21.2761 18.1513 21.2761C18.3466 21.2761 18.505 21.118 18.505 20.9228V20.5078H19.3604V21.7154C19.3604 21.9106 19.5187 22.0688 19.7141 22.0688C19.9094 22.0688 20.0678 21.9106 20.0678 21.7154V20.5078H20.9228V20.9228C20.9228 21.118 21.0812 21.2761 21.2765 21.2761C21.4719 21.2761 21.6302 21.118 21.6302 20.9228V20.5078H22.4856V21.7154C22.4856 21.9106 22.644 22.0688 22.8393 22.0688C23.0346 22.0688 23.193 21.9106 23.193 21.7154V20.5078H24.0247C24.0377 20.5078 24.0483 20.5184 24.0483 20.5314V23.68Z" fill="#333333"/>
<path d="M4.86935 19.0207C4.24348 19.0207 3.73438 19.5293 3.73438 20.1544C3.73438 20.7797 4.24352 21.2882 4.86935 21.2882C5.49517 21.2882 6.00432 20.7796 6.00432 20.1544C6.00432 19.5293 5.49517 19.0207 4.86935 19.0207ZM4.86935 20.5816C4.63359 20.5816 4.44179 20.39 4.44179 20.1544C4.44179 19.9189 4.63359 19.7273 4.86935 19.7273C5.1051 19.7273 5.29691 19.9189 5.29691 20.1544C5.29691 20.39 5.1051 20.5816 4.86935 20.5816Z" fill="black"/>
<path d="M4.86947 17.4597C3.38202 17.4597 2.17188 18.6685 2.17188 20.1544C2.17188 21.6403 3.38202 22.8492 4.86947 22.8492C6.35693 22.8492 7.56707 21.6403 7.56707 20.1544C7.56703 18.6685 6.35693 17.4597 4.86947 17.4597ZM4.86947 22.1425C3.77209 22.1425 2.87929 21.2507 2.87929 20.1544C2.87929 19.0582 3.77209 18.1664 4.86947 18.1664C5.96686 18.1664 6.85966 19.0582 6.85966 20.1544C6.85961 21.2507 5.96686 22.1425 4.86947 22.1425Z" fill="black"/>
<path d="M10.7425 7.05461C10.8261 7.05461 10.91 7.02522 10.9774 6.96534L11.9888 6.06726C12.1348 5.93761 12.148 5.7143 12.0182 5.56844C11.8884 5.42258 11.6648 5.40935 11.5189 5.53909L10.5074 6.43722C10.3614 6.56687 10.3483 6.79018 10.478 6.93604C10.5479 7.01457 10.6449 7.05461 10.7425 7.05461Z" fill="black"/>
<path d="M12.9437 5.09987C13.0273 5.09987 13.1112 5.07047 13.1786 5.01064L14.19 4.11251C14.336 3.98286 14.3491 3.75955 14.2194 3.6137C14.0896 3.46784 13.866 3.4546 13.72 3.58435L12.7086 4.48243C12.5625 4.61208 12.5494 4.83539 12.6792 4.98125C12.7491 5.05983 12.8461 5.09987 12.9437 5.09987Z" fill="black"/>
<path d="M8.77554 8.80065H9.60571C9.80105 8.80065 9.95942 8.6425 9.95942 8.44732C9.95942 8.27885 9.84138 8.13789 9.68339 8.10256C9.77795 7.97126 9.77243 7.78757 9.66037 7.66169C9.53059 7.51583 9.30704 7.50255 9.16103 7.63234L8.54059 8.18326C8.43084 8.28069 8.39278 8.43578 8.44499 8.57292C8.4971 8.71001 8.62868 8.80065 8.77554 8.80065Z" fill="black"/>
<path d="M13.3913 8.4473C13.3913 8.25212 13.233 8.09396 13.0376 8.09396H11.4904C11.2951 8.09396 11.1367 8.25212 11.1367 8.4473C11.1367 8.64248 11.2951 8.80063 11.4904 8.80063H13.0376C13.233 8.80063 13.3913 8.64248 13.3913 8.4473Z" fill="black"/>
<path d="M14.7814 17.3859H15.4532V18.2402H15.0256C14.8303 18.2402 14.6719 18.3983 14.6719 18.5935C14.6719 18.7887 14.8303 18.9468 15.0256 18.9468H16.5882C16.7835 18.9468 16.9419 18.7887 16.9419 18.5935C16.9419 18.3983 16.7835 18.2402 16.5882 18.2402H16.1606V17.3859H17.834C18.0293 17.3859 18.1877 17.2277 18.1877 17.0326C18.1877 16.8374 18.0293 16.6792 17.834 16.6792H16.1606V8.80065H20.9223V16.6792H19.2488C19.0535 16.6792 18.8951 16.8374 18.8951 17.0326C18.8951 17.2277 19.0535 17.3859 19.2488 17.3859H21.276C21.4713 17.3859 21.6297 17.2277 21.6297 17.0326V8.80065H22.8385C22.9854 8.80065 23.117 8.71 23.1691 8.57286C23.2213 8.43577 23.1833 8.28068 23.0735 8.18321L16.1606 2.04479V0.995854H16.5882C16.7835 0.995854 16.9419 0.837702 16.9419 0.64252C16.9419 0.447337 16.7835 0.289185 16.5882 0.289185H15.0256C14.8303 0.289185 14.6719 0.447337 14.6719 0.64252C14.6719 0.837702 14.8303 0.995854 15.0256 0.995854H15.4532V2.04474L14.9515 2.49027C14.8054 2.61992 14.7923 2.84323 14.9221 2.98909C14.992 3.06767 15.0891 3.10767 15.1866 3.10767C15.2702 3.10767 15.3541 3.07822 15.4215 3.01839L15.4532 2.99017V8.09388H14.9768C14.7814 8.09388 14.6231 8.25204 14.6231 8.44722C14.6231 8.6424 14.7814 8.80055 14.9768 8.80055H15.4532V16.6792H14.7814C14.5861 16.6792 14.4277 16.8374 14.4277 17.0326C14.4277 17.2277 14.5861 17.3859 14.7814 17.3859ZM21.9082 8.09398H16.1606V2.99031L21.9082 8.09398Z" fill="black"/>
<path d="M12.59 17.3859H13.5947C13.7901 17.3859 13.9485 17.2277 13.9485 17.0325C13.9485 16.8374 13.7901 16.6792 13.5947 16.6792H12.59C12.3947 16.6792 12.2363 16.8374 12.2363 17.0325C12.2363 17.2277 12.3946 17.3859 12.59 17.3859Z" fill="black"/>
<path d="M10.3381 17.3859H11.3635C11.5589 17.3859 11.7173 17.2277 11.7173 17.0325C11.7173 16.8374 11.5589 16.6792 11.3635 16.6792H10.6918V16.0082C10.6918 15.813 10.5334 15.6548 10.3381 15.6548C10.1427 15.6548 9.98438 15.813 9.98438 16.0082V17.0325C9.98438 17.2277 10.1427 17.3859 10.3381 17.3859Z" fill="black"/>
<path d="M10.3381 14.4951C10.5334 14.4951 10.6918 14.337 10.6918 14.1418V12.5645C10.6918 12.3694 10.5334 12.2112 10.3381 12.2112C10.1427 12.2112 9.98438 12.3694 9.98438 12.5645V14.1418C9.98438 14.337 10.1427 14.4951 10.3381 14.4951Z" fill="black"/>
<path d="M10.3381 10.9957C10.5334 10.9957 10.6918 10.8376 10.6918 10.6424V9.61801C10.6918 9.42283 10.5334 9.26468 10.3381 9.26468C10.1427 9.26468 9.98438 9.42283 9.98438 9.61801V10.6424C9.98438 10.8375 10.1427 10.9957 10.3381 10.9957Z" fill="black"/>
</svg>
