<svg width="21" height="17" viewBox="0 0 21 17" fill="none" xmlns="http://www.w3.org/2000/svg">
<path d="M10.8139 7.55347C9.51859 7.55347 8.46484 8.60725 8.46484 9.90252C8.46484 11.1978 9.51863 12.2516 10.8139 12.2516C12.1092 12.2516 13.1629 11.1978 13.1629 9.90252C13.1629 8.60725 12.1092 7.55347 10.8139 7.55347ZM10.8139 11.6175C9.8682 11.6175 9.09889 10.8482 9.09889 9.90252C9.09889 8.95686 9.8682 8.18751 10.8139 8.18751C11.7595 8.18751 12.5289 8.95686 12.5289 9.90252C12.5289 10.8482 11.7596 11.6175 10.8139 11.6175Z" fill="#FDFDFD"/>
<path d="M20.2902 3.12406C20.0123 2.88819 18.9622 2.06046 17.1179 1.31056C15.1468 0.509122 13.0257 0.102783 10.8136 0.102783C8.60156 0.102783 6.48051 0.509122 4.50943 1.31056C2.66507 2.06046 1.61497 2.88819 1.33835 3.12296C0.982737 3.42147 0.847685 4.04308 1.03646 4.50674L1.65402 6.05056C2.00702 6.93725 2.85216 7.51017 3.80716 7.51017H6.26933L6.0494 8.46167C5.82313 9.1313 5.34988 9.51503 4.7491 9.51503C4.20957 9.51503 3.67075 9.76269 3.34291 10.1613C3.08012 10.4809 2.97673 10.8668 3.05167 11.2477L3.6549 14.3268H3.36278C3.18765 14.3268 3.04575 14.4688 3.04575 14.6439C3.04575 14.819 3.18765 14.9609 3.36278 14.9609H4.04007H4.40037V15.9985C4.40037 16.1736 4.54227 16.3156 4.7174 16.3156C4.89252 16.3156 5.03442 16.1736 5.03442 15.9985V14.9609H12.9692C13.1443 14.9609 13.2862 14.819 13.2862 14.6439C13.2862 14.4688 13.1443 14.3268 12.9692 14.3268H4.30117L3.67397 11.1255C3.62561 10.8798 3.73361 10.6846 3.83277 10.564C4.04007 10.3119 4.39978 10.1491 4.74922 10.1491C5.63194 10.1491 6.3447 9.58773 6.65593 8.64744C6.65897 8.63814 6.66163 8.62876 6.66388 8.61921L7.1146 6.66913C7.35816 5.95617 8.02623 5.47814 8.78163 5.47814H12.8457C13.6011 5.47814 14.2693 5.95617 14.5127 6.66922L14.9644 8.61933C14.9666 8.62872 14.9692 8.63797 14.9722 8.6471C15.2824 9.58761 15.9949 10.1491 16.8781 10.1491C17.4678 10.1491 17.9318 10.5899 17.947 11.1579L17.3261 14.3268H15.7979C15.6228 14.3268 15.4809 14.4688 15.4809 14.6439C15.4809 14.819 15.6228 14.9609 15.7979 14.9609H16.5927V15.9985C16.5927 16.1736 16.7346 16.3156 16.9097 16.3156C17.0848 16.3156 17.2267 16.1736 17.2267 15.9985V14.9609H17.5861C17.5865 14.9609 17.587 14.9609 17.5873 14.9609C17.5878 14.9609 17.5883 14.9609 17.5887 14.9609H18.2643C18.4395 14.9609 18.5814 14.819 18.5814 14.6439C18.5814 14.4688 18.4395 14.3268 18.2643 14.3268H17.9722L18.5754 11.2477C18.5794 11.2276 18.5814 11.2072 18.5814 11.1867C18.5814 10.2493 17.8332 9.51503 16.8781 9.51503C16.277 9.51503 15.8041 9.13139 15.5787 8.46179L15.3583 7.51017H17.82C18.775 7.51017 19.6202 6.93725 19.973 6.05102L20.59 4.50852C20.7796 4.04313 20.6446 3.42155 20.2902 3.12406ZM20.0021 4.27126L19.3842 5.81609C19.1278 6.46007 18.5138 6.87617 17.82 6.87617H15.2115L15.127 6.51113C15.1247 6.50149 15.1221 6.49198 15.1189 6.4826C14.8948 5.80882 14.393 5.28704 13.7654 5.02674C13.8119 4.97154 13.8401 4.90036 13.8401 4.82245V3.8065C13.8401 3.63142 13.6982 3.48948 13.5231 3.48948C13.348 3.48948 13.2061 3.63142 13.2061 3.8065V4.8225C13.2061 4.8394 13.2078 4.85585 13.2104 4.87204C13.0911 4.85382 12.9693 4.84414 12.8458 4.84414H8.78172C8.6582 4.84414 8.53642 4.85382 8.41714 4.87204C8.41968 4.85585 8.42141 4.8394 8.42141 4.8225V3.8065C8.42141 3.63142 8.27951 3.48948 8.10439 3.48948C7.92926 3.48948 7.78736 3.63142 7.78736 3.8065V4.8225C7.78736 4.90036 7.81556 4.97158 7.86214 5.02674C7.23447 5.28704 6.73265 5.80882 6.50853 6.4826C6.50541 6.49202 6.50266 6.50158 6.50046 6.51126L6.41613 6.87613H3.80729C3.11351 6.87613 2.49954 6.46003 2.24301 5.81554L1.62452 4.2694C1.53892 4.05923 1.59911 3.73189 1.74735 3.60741C2.28262 3.15318 3.35208 2.46554 4.74829 1.89785C6.64312 1.1274 8.68382 0.736787 10.8136 0.736787C12.9435 0.736787 14.9841 1.12744 16.879 1.89785C18.2752 2.46554 19.3446 3.15318 19.8812 3.60851C20.0282 3.73194 20.0884 4.05932 20.0021 4.27126Z" fill="#FDFDFD"/>
<path d="M14.5372 14.3269H14.2213C14.0462 14.3269 13.9043 14.4688 13.9043 14.6439C13.9043 14.819 14.0462 14.961 14.2213 14.961H14.5372C14.7123 14.961 14.8542 14.819 14.8542 14.6439C14.8542 14.4688 14.7122 14.3269 14.5372 14.3269Z" fill="#FDFDFD"/>
</svg>
