<svg width="26" height="19" viewBox="0 0 26 19" fill="none" xmlns="http://www.w3.org/2000/svg">
<path d="M25.5188 13.9688H25.1072V10.6796C25.1067 10.2436 24.933 9.82558 24.6244 9.51728C24.3158 9.20897 23.8974 9.03552 23.4609 9.03495V2.04534C23.4603 1.60934 23.2867 1.19135 22.9781 0.883053C22.6694 0.574752 22.251 0.401297 21.8146 0.400726H4.52796C4.0915 0.401297 3.67308 0.574752 3.36446 0.883053C3.05583 1.19135 2.88219 1.60934 2.88162 2.04534V9.03495C2.44516 9.03552 2.02674 9.20897 1.71811 9.51728C1.40949 9.82558 1.23585 10.2436 1.23528 10.6796V13.9688H0.823695C0.714536 13.9688 0.609847 14.0121 0.53266 14.0892C0.455473 14.1663 0.412109 14.2709 0.412109 14.3799V16.0246C0.412109 16.1336 0.455473 16.2382 0.53266 16.3153C0.609847 16.3924 0.714536 16.4357 0.823695 16.4357H1.23528V18.0803C1.23528 18.1894 1.27864 18.2939 1.35583 18.3711C1.43302 18.4482 1.53771 18.4915 1.64687 18.4915H2.88162C2.97675 18.4915 3.06895 18.4586 3.1425 18.3983C3.21605 18.3381 3.2664 18.2542 3.28498 18.161L3.63071 16.4357H22.7118L23.0575 18.161C23.0761 18.2542 23.1265 18.3381 23.2 18.3983C23.2736 18.4586 23.3658 18.4915 23.4609 18.4915H24.6957C24.8048 18.4915 24.9095 18.4482 24.9867 18.3711C25.0639 18.2939 25.1072 18.1894 25.1072 18.0803V16.4357H25.5188C25.628 16.4357 25.7327 16.3924 25.8099 16.3153C25.887 16.2382 25.9304 16.1336 25.9304 16.0246V14.3799C25.9304 14.2709 25.887 14.1663 25.8099 14.0892C25.7327 14.0121 25.628 13.9688 25.5188 13.9688ZM3.70479 2.04534C3.70508 1.82734 3.7919 1.61835 3.94621 1.4642C4.10052 1.31005 4.30973 1.22332 4.52796 1.22303H21.8146C22.0328 1.22332 22.242 1.31005 22.3963 1.4642C22.5506 1.61835 22.6374 1.82734 22.6377 2.04534V9.03495H21.8146V7.39033C21.814 6.95433 21.6403 6.53635 21.3317 6.22805C21.0231 5.91975 20.6047 5.74629 20.1682 5.74572H15.2292C14.7927 5.74629 14.3743 5.91975 14.0657 6.22805C13.7571 6.53635 13.5834 6.95433 13.5828 7.39033V9.03495H12.7597V7.39033C12.7591 6.95433 12.5855 6.53635 12.2768 6.22805C11.9682 5.91975 11.5498 5.74629 11.1133 5.74572H6.17431C5.73784 5.74629 5.31942 5.91975 5.0108 6.22805C4.70217 6.53635 4.52854 6.95433 4.52796 7.39033V9.03495H3.70479V2.04534ZM20.9914 7.39033V9.03495H14.406V7.39033C14.4063 7.17233 14.4931 6.96334 14.6474 6.80919C14.8017 6.65504 15.011 6.56831 15.2292 6.56803H20.1682C20.3864 6.56831 20.5957 6.65504 20.75 6.80919C20.9043 6.96334 20.9911 7.17233 20.9914 7.39033ZM11.9365 7.39033V9.03495H5.35114V7.39033C5.35142 7.17233 5.43824 6.96334 5.59255 6.80919C5.74687 6.65504 5.95608 6.56831 6.17431 6.56803H11.1133C11.3316 6.56831 11.5408 6.65504 11.6951 6.80919C11.8494 6.96334 11.9362 7.17233 11.9365 7.39033ZM2.05845 10.6796C2.05874 10.4616 2.14556 10.2526 2.29987 10.0984C2.45418 9.94427 2.66339 9.85754 2.88162 9.85726H23.4609C23.6791 9.85754 23.8883 9.94427 24.0427 10.0984C24.197 10.2526 24.2838 10.4616 24.2841 10.6796V13.9688H2.05845V10.6796ZM2.54412 17.6692H2.05845V16.4357H2.79107L2.54412 17.6692ZM24.2841 17.6692H23.7984L23.5514 16.4357H24.2841V17.6692ZM25.1072 15.6134H1.23528V14.7911H25.1072V15.6134Z" fill="#333333"/>
</svg>
